<?xml version="1.0" encoding="utf-8"?>
<!-- Generator: Adobe Illustrator 27.8.1, SVG Export Plug-In . SVG Version: 6.00 Build 0)  -->
<svg version="1.1" id="Layer_1" xmlns="http://www.w3.org/2000/svg" xmlns:xlink="http://www.w3.org/1999/xlink" x="0px" y="0px"
	 viewBox="0 0 262 213" style="enable-background:new 0 0 262 213;" xml:space="preserve">
<style type="text/css">
	.st0{enable-background:new    ;}
	.st1{fill:#130010;}
</style>
<g class="st0">
	<path class="st1" d="M18.05,74.26c-0.76,0-1.24-0.8-1.24-2.07v-2.31c0-1.35,0.29-1.83,1-2.31l0.91-0.56c1-0.64,1.34-1.51,1.34-3.27
		V29.01c0-1.75-0.33-2.63-1.34-3.27l-0.91-0.56c-0.72-0.48-1-0.96-1-2.31v-2.31c0-1.27,0.48-2.07,1.24-2.07h9.74
		c0.67,0,1.15,0.4,1.48,1.35L37.1,41.2c0.24,0.64,0.52,0.64,0.76,0l8.73-21.35c0.38-0.96,0.81-1.35,1.48-1.35h7.88
		c0.81,0,1.24,0.8,1.24,2.07v3.03c0,1.35-0.29,1.83-1,2.31l-0.91,0.56c-1,0.64-1.34,1.51-1.34,3.27v33.3c0,1.75,0.33,2.63,1.34,3.27
		l0.91,0.56c0.72,0.48,1,0.96,1,2.31v3.03c0,1.27-0.43,2.07-1.24,2.07H43.4c-0.76,0-1.24-0.8-1.24-2.07v-3.03
		c0-1.35,0.29-1.83,1-2.31l0.91-0.56c1-0.64,1.34-1.51,1.34-3.27V41.52c0-0.88-0.38-1.12-0.72-0.32l-8.07,19.44
		c-0.57,1.35-0.91,1.83-1.67,1.83c-0.72,0-1.15-0.48-1.67-1.83L26.02,41.2c-0.29-0.8-0.72-0.56-0.72,0.32v22.23
		c0,1.75,0.33,2.63,1.34,3.27l0.91,0.56c0.72,0.48,1,0.96,1,2.31v2.31c0,1.27-0.43,2.07-1.24,2.07H18.05z"/>
</g>
<g class="st0">
	<path class="st1" d="M70.26,17.3h12.65l10.83,56.96H83.39l-1.81-10.6H70.26l-1.81,10.6h-9.12L70.26,17.3z M72.17,52.43h7.49
		l-3.72-21.91L72.17,52.43z"/>
	<path class="st1" d="M97.65,17.3h9.83v22.55l10.26-22.55h10.21l-12.51,26.45l13.17,30.51h-11.31l-9.83-23.82v23.82h-9.83V17.3z"/>
	<path class="st1" d="M132.3,17.3h23.58v12.59h-13.84v9.8h11.03v11.63h-11.03v10.36h14.61v12.59H132.3V17.3z"/>
</g>
<g class="st0">
	<path class="st1" d="M26.84,81.8h12.65l10.83,56.96H39.96l-1.81-10.6H26.84l-1.81,10.6h-9.12L26.84,81.8z M28.75,116.93h7.49
		l-3.72-21.91L28.75,116.93z"/>
	<path class="st1" d="M63.63,81.8h15.23c8.07,0,11.5,6.05,11.5,14.9v0.32c0,6.37-1.96,10.6-5.78,12.27c4.2,1.2,6.83,5.42,6.83,13.3
		v0.32c0,10.2-3.96,15.85-12.41,15.85H63.63V81.8z M76.9,104.43c3.05,0,4.2-1.75,4.2-5.82v-0.32c0-3.9-1.24-5.66-4.2-5.66h-3.72
		v11.79H76.9z M77.23,127.85c3.1,0,4.53-2.39,4.53-6.61v-0.32c0-4.3-1.38-6.53-4.82-6.53h-3.77v13.46H77.23z"/>
	<path class="st1" d="M94.45,110.64V110c0-17.37,7.83-29,18.04-29c10.4,0,18.09,10.91,18.09,28.6v0.64
		c0,17.53-7.21,29.48-18.23,29.48C101.33,139.72,94.45,127.77,94.45,110.64z M120.37,110.48v-0.64c0-10.12-3.05-16.09-7.88-16.09
		s-7.83,5.82-7.83,16.17v0.64c0,10.36,3.15,16.33,7.88,16.33C117.36,126.89,120.37,120.68,120.37,110.48z"/>
	<path class="st1" d="M135.35,81.8h9.83v44.29h12.89v12.67h-22.72V81.8z"/>
	<path class="st1" d="M162.79,81.8h12.41c12.12,0,18.28,10.12,18.28,27.8v0.64c0,17.77-6.3,28.52-18.33,28.52h-12.36V81.8z
		 M174.87,126.17c5.82,0,8.4-5.1,8.4-15.69v-0.64c0-10.83-2.58-15.46-8.5-15.46h-2.15v31.79H174.87z"/>
</g>
<g class="st0">
	<path class="st1" d="M99.26,146.29H112l6.54,30.35l6.54-30.35h12.5v56.96h-9.74V167.8l-8.35,35.45h-3.25l-8.26-35.45v35.45h-8.73
		V146.29z"/>
	<path class="st1" d="M142.4,175.13v-0.64c0-17.37,7.83-29,18.04-29c10.41,0,18.09,10.91,18.09,28.6v0.64
		c0,17.53-7.21,29.48-18.23,29.48S142.4,192.26,142.4,175.13z M168.32,174.97v-0.64c0-10.12-3.05-16.09-7.88-16.09
		c-4.82,0-7.83,5.82-7.83,16.17v0.64c0,10.36,3.15,16.33,7.88,16.33C165.31,191.38,168.32,185.17,168.32,174.97z"/>
</g>
<g class="st0">
	<path class="st1" d="M196.56,203.25c-0.69,0-1.23-0.57-1.52-1.72l-10.96-41.58c-0.93-3.61-1.52-5.08-2.6-5.99l-0.69-0.57
		c-0.64-0.57-0.88-1.07-0.88-2.3v-3.12c0-1.39,0.49-2.13,1.28-2.13h14.89c0.79,0,1.28,0.82,1.28,2.13v3.12
		c0,1.15-0.25,1.89-0.88,2.3l-0.64,0.41c-1.33,0.82-1.47,2.46-0.83,5.08l5.5,22.8c0.2,0.9,0.59,0.9,0.79,0l5.26-22.8
		c0.64-2.79,0.34-4.43-1.18-5.5l-0.59-0.41c-0.59-0.41-0.88-1.15-0.88-2.38v-2.62c0-1.31,0.49-2.13,1.28-2.13h10.17
		c0.79,0,1.28,0.82,1.28,2.13v2.95c0,1.15-0.2,1.89-0.79,2.38l-0.59,0.49c-1.47,1.23-2.06,2.62-2.7,5.25l-9.97,42.48
		c-0.25,1.15-0.84,1.72-1.52,1.72H196.56z"/>
</g>
<g class="st0">
	<path class="st1" d="M219.79,146.29h23.58v12.59h-13.84v9.8h11.03v11.63h-11.03v10.36h14.61v12.59h-24.34V146.29z"/>
</g>
</svg>
